<svg width="352" height="128" viewBox="0 0 352 128" fill="none" xmlns="http://www.w3.org/2000/svg">
<g clip-path="url(#clip0_69_1321)">
<path d="M126.05 79.0798C119.25 107.08 94.0202 127.86 63.9302 127.86C31.3302 127.86 4.43023 103.46 0.490234 71.9298C62.3502 53.2998 66.5602 112.47 126.05 79.0798Z" fill="white"/>
<path d="M92.71 46.07C100.21 52.84 104.01 57.46 113.51 61.32C119.04 63.56 124.15 64.23 127.85 64.39C127.86 64.24 127.86 64.08 127.86 63.93C127.86 28.62 99.24 0 63.93 0C28.62 0 0 28.62 0 63.93C0 66.49 0.15 69.01 0.44 71.49C53.49 47.01 62.72 92.09 104.66 85.45C109.12 84.28 120.42 80.54 126.2 78.47C127.1 74.6 127.65 70.61 127.81 66.51C116.71 67.62 102.13 61.05 96 55.01C82.5 41.72 63.26 28.64 38.59 37.98C29.98 40.54 24.1 44.35 19.39 46.82C25.28 41.71 42.73 32.14 58.64 31.67C70.03 31.33 82.69 37.04 92.71 46.07ZM113.7 77.52C69.08 80.52 72 34.4 10.35 62.26C71.62 28.05 68.38 73.11 113.7 77.52Z" fill="white"/>
<path d="M172.41 41.4C172.41 38.89 171.82 36.64 170.66 34.65C169.49 32.66 167.83 31.09 165.67 29.95C163.51 28.82 161.03 28.25 158.23 28.25C155.43 28.25 152.81 28.82 150.6 29.98C148.39 31.13 146.67 32.78 145.45 34.92C144.23 37.06 143.62 39.56 143.62 42.4C143.62 45.24 144.24 47.75 145.5 49.91C146.76 52.07 148.5 53.73 150.71 54.9C152.92 56.07 155.42 56.66 158.23 56.66C161.75 56.66 164.7 55.83 167.07 54.17C169.44 52.52 171.02 50.37 171.82 47.72H166.53C165.96 49.26 164.96 50.49 163.54 51.41C162.12 52.33 160.35 52.79 158.23 52.79C155.64 52.79 153.44 52.03 151.62 50.51C149.81 48.99 148.81 46.87 148.63 44.16H172.25C172.36 43.19 172.41 42.27 172.41 41.4ZM148.68 40.44C148.94 37.83 149.93 35.79 151.68 34.32C153.42 32.85 155.53 32.11 158.01 32.11C159.74 32.11 161.31 32.44 162.73 33.09C164.15 33.74 165.27 34.7 166.1 35.95C166.93 37.21 167.34 38.7 167.34 40.44H148.68Z" fill="white"/>
<path d="M200.12 31.23C202.35 33.26 203.46 36.17 203.46 39.99V56.2H198.61V40.64C198.61 37.9 197.87 35.8 196.4 34.34C194.93 32.88 192.91 32.16 190.36 32.16C187.81 32.16 185.71 32.91 184.19 34.42C182.66 35.93 181.9 38.12 181.9 41V56.21H176.99V28.7H181.9V32.62C182.87 31.21 184.19 30.13 185.86 29.36C187.53 28.59 189.37 28.21 191.39 28.21C194.98 28.21 197.9 29.22 200.13 31.25L200.12 31.23Z" fill="white"/>
<path d="M236.41 44.1598H212.79C212.97 46.8698 213.97 48.9898 215.78 50.5098C217.59 52.0298 219.8 52.7898 222.39 52.7898C224.51 52.7898 226.28 52.3298 227.7 51.4098C229.12 50.4898 230.12 49.2598 230.69 47.7198H235.97C235.18 50.3598 233.6 52.5098 231.22 54.1698C228.85 55.8298 225.9 56.6598 222.38 56.6598C219.58 56.6598 217.07 56.0698 214.86 54.8998C212.65 53.7298 210.91 52.0598 209.66 49.9098C208.4 47.7498 207.77 45.2498 207.77 42.4098C207.77 39.5698 208.38 37.0698 209.6 34.9298C210.82 32.7898 212.54 31.1398 214.75 29.9898C216.96 28.8398 219.5 28.2598 222.38 28.2598C225.26 28.2598 227.66 28.8298 229.82 29.9698C231.98 31.1098 233.64 32.6698 234.81 34.6598C235.98 36.6498 236.56 38.8998 236.56 41.4098C236.56 42.2798 236.51 43.1998 236.4 44.1698L236.41 44.1598ZM230.27 35.9498C229.44 34.6998 228.32 33.7398 226.9 33.0898C225.48 32.4398 223.91 32.1098 222.18 32.1098C219.7 32.1098 217.59 32.8498 215.84 34.3198C214.1 35.7898 213.1 37.8298 212.85 40.4398H231.51C231.51 38.6998 231.1 37.1998 230.27 35.9498Z" fill="white"/>
<path d="M249.76 29.4999C251.36 28.6299 253.31 28.1899 255.61 28.1899V32.9099H254.32C248.82 32.9099 246.07 35.6899 246.07 41.2399V56.1999H241.16V28.6899H246.07V33.1599C246.93 31.5899 248.16 30.3699 249.76 29.4999Z" fill="white"/>
<path d="M278.28 29.8C280.2 30.84 281.63 32.14 282.57 33.72V28.7H287.53V56.81C287.53 59.32 286.95 61.55 285.8 63.51C284.65 65.47 283 67 280.87 68.1C278.73 69.2 276.24 69.76 273.4 69.76C269.52 69.76 266.28 68.91 263.69 67.2C261.1 65.49 259.57 63.17 259.11 60.22H263.96C264.5 61.89 265.61 63.24 267.3 64.26C268.99 65.28 271.02 65.79 273.39 65.79C276.09 65.79 278.29 65 280 63.43C281.71 61.86 282.56 59.65 282.56 56.8V51.03C281.59 52.64 280.15 53.98 278.25 55.05C276.34 56.12 274.12 56.66 271.56 56.66C269 56.66 266.55 56.06 264.42 54.85C262.29 53.64 260.6 51.96 259.38 49.78C258.16 47.61 257.55 45.13 257.55 42.35C257.55 39.57 258.16 37.07 259.38 34.95C260.6 32.83 262.28 31.18 264.42 30.01C266.56 28.84 268.94 28.25 271.56 28.25C274.18 28.25 276.35 28.77 278.27 29.81L278.28 29.8ZM281.22 36.98C280.32 35.44 279.11 34.26 277.58 33.44C276.05 32.62 274.37 32.21 272.54 32.21C270.71 32.21 269.04 32.61 267.53 33.41C266.02 34.21 264.82 35.39 263.92 36.92C263.02 38.46 262.57 40.27 262.57 42.34C262.57 44.41 263.02 46.28 263.92 47.84C264.82 49.4 266.02 50.58 267.53 51.4C269.04 52.22 270.71 52.63 272.54 52.63C274.37 52.63 276.05 52.22 277.58 51.4C279.11 50.58 280.32 49.39 281.22 47.84C282.12 46.28 282.57 44.47 282.57 42.39C282.57 40.31 282.12 38.51 281.22 36.97V36.98Z" fill="white"/>
<path d="M319.4 28.6997L301.61 69.1597H296.54L302.36 55.9097L290.44 28.6997H295.89L305.16 50.9897L314.33 28.6997H319.4Z" fill="white"/>
<path d="M165.56 82.5699C167.31 83.4599 168.69 84.7899 169.69 86.5599C170.69 88.3299 171.19 90.4899 171.19 93.0399V109.25H166.45V93.6899C166.45 90.9499 165.73 88.8499 164.29 87.3899C162.85 85.9299 160.89 85.2099 158.4 85.2099C155.91 85.2099 153.86 85.9599 152.37 87.4699C150.88 88.9799 150.13 91.1699 150.13 94.0499V109.26H145.34V72.1099H150.13V85.6599C151.08 84.2499 152.38 83.1699 154.05 82.3999C155.72 81.6299 157.58 81.2499 159.66 81.2499C161.84 81.2499 163.8 81.6899 165.55 82.5799L165.56 82.5699Z" fill="white"/>
<path d="M182.43 107.94C180.24 106.77 178.52 105.1 177.27 102.94C176.02 100.78 175.4 98.28 175.4 95.44C175.4 92.6 176.04 90.14 177.32 87.99C178.6 85.83 180.35 84.18 182.56 83.02C184.77 81.87 187.24 81.29 189.98 81.29C192.72 81.29 195.19 81.87 197.4 83.02C199.61 84.18 201.36 85.82 202.64 87.96C203.92 90.1 204.56 92.6 204.56 95.44C204.56 98.28 203.9 100.79 202.59 102.94C201.28 105.1 199.49 106.76 197.25 107.94C195 109.11 192.51 109.7 189.78 109.7C187.05 109.7 184.63 109.11 182.44 107.94H182.43ZM194.61 104.53C196.12 103.76 197.34 102.61 198.27 101.07C199.2 99.53 199.66 97.66 199.66 95.45C199.66 93.24 199.2 91.37 198.29 89.83C197.38 88.29 196.18 87.14 194.71 86.39C193.24 85.64 191.64 85.26 189.92 85.26C188.2 85.26 186.56 85.64 185.1 86.39C183.64 87.14 182.48 88.29 181.6 89.83C180.72 91.37 180.28 93.24 180.28 95.45C180.28 97.66 180.71 99.58 181.57 101.12C182.43 102.66 183.58 103.81 185.02 104.56C186.46 105.31 188.04 105.69 189.76 105.69C191.48 105.69 193.09 105.31 194.6 104.54L194.61 104.53Z" fill="white"/>
<path d="M213.82 72.0996V109.25H209.03V72.0996H213.82Z" fill="white"/>
<path d="M220.14 87.9896C221.33 85.8696 222.97 84.2196 225.06 83.0496C227.15 81.8796 229.49 81.2896 232.09 81.2896C234.34 81.2896 236.42 81.7796 238.35 82.7696C240.28 83.7596 241.75 85.0496 242.77 86.6596V72.0996H247.61V109.25H242.77V104.08C241.82 105.72 240.42 107.07 238.56 108.12C236.7 109.17 234.52 109.7 232.03 109.7C229.54 109.7 227.14 109.1 225.06 107.89C222.97 106.68 221.33 105 220.14 102.82C218.95 100.64 218.35 98.1696 218.35 95.3896C218.35 92.6096 218.95 90.1096 220.14 87.9896ZM241.45 90.0196C240.57 88.4796 239.39 87.2996 237.9 86.4796C236.41 85.6596 234.77 85.2496 232.98 85.2496C231.19 85.2496 229.56 85.6496 228.09 86.4496C226.62 87.2496 225.44 88.4296 224.56 89.9596C223.68 91.4896 223.24 93.3096 223.24 95.3796C223.24 97.4496 223.68 99.3196 224.56 100.88C225.44 102.44 226.61 103.62 228.09 104.44C229.56 105.26 231.2 105.67 232.98 105.67C234.76 105.67 236.41 105.26 237.9 104.44C239.39 103.62 240.57 102.43 241.45 100.88C242.33 99.3196 242.77 97.5096 242.77 95.4296C242.77 93.3496 242.33 91.5496 241.45 90.0096V90.0196Z" fill="white"/>
<path d="M254.03 76.3698C253.4 75.7698 253.08 75.0298 253.08 74.1598C253.08 73.2898 253.4 72.5498 254.03 71.9498C254.66 71.3498 255.43 71.0498 256.35 71.0498C257.27 71.0498 257.97 71.3498 258.59 71.9498C259.2 72.5498 259.51 73.2898 259.51 74.1598C259.51 75.0298 259.2 75.7698 258.59 76.3698C257.97 76.9698 257.23 77.2698 256.35 77.2698C255.47 77.2698 254.67 76.9698 254.03 76.3698ZM258.67 81.7398V109.25H253.88V81.7398H258.67Z" fill="white"/>
<path d="M287.56 84.27C289.73 86.3 290.82 89.21 290.82 93.03V109.24H286.08V93.68C286.08 90.94 285.36 88.84 283.92 87.38C282.48 85.92 280.52 85.2 278.03 85.2C275.54 85.2 273.49 85.95 272 87.46C270.51 88.97 269.76 91.16 269.76 94.04V109.25H264.97V81.74H269.76V85.66C270.71 84.25 272 83.17 273.63 82.4C275.26 81.63 277.06 81.25 279.02 81.25C282.53 81.25 285.37 82.26 287.55 84.29L287.56 84.27Z" fill="white"/>
<path d="M315.27 82.84C317.15 83.88 318.54 85.18 319.45 86.76V81.74H324.29V109.85C324.29 112.36 323.73 114.59 322.61 116.55C321.49 118.51 319.88 120.04 317.79 121.14C315.7 122.24 313.27 122.8 310.5 122.8C306.71 122.8 303.55 121.95 301.03 120.24C298.51 118.53 297.01 116.21 296.56 113.26H301.3C301.83 114.93 302.91 116.28 304.56 117.3C306.21 118.32 308.19 118.83 310.51 118.83C313.14 118.83 315.29 118.04 316.96 116.47C318.63 114.9 319.46 112.69 319.46 109.84V104.07C318.51 105.68 317.11 107.01 315.25 108.09C313.39 109.16 311.21 109.7 308.72 109.7C306.23 109.7 303.83 109.1 301.75 107.89C299.66 106.68 298.02 105 296.83 102.82C295.64 100.64 295.04 98.17 295.04 95.39C295.04 92.61 295.64 90.11 296.83 87.99C298.02 85.87 299.66 84.22 301.75 83.05C303.84 81.88 306.16 81.29 308.72 81.29C311.28 81.29 313.4 81.81 315.27 82.85V82.84ZM318.14 90.02C317.26 88.48 316.08 87.3 314.59 86.48C313.1 85.66 311.46 85.25 309.67 85.25C307.88 85.25 306.25 85.65 304.78 86.45C303.31 87.25 302.13 88.43 301.25 89.96C300.37 91.49 299.93 93.31 299.93 95.38C299.93 97.45 300.37 99.32 301.25 100.88C302.13 102.44 303.3 103.62 304.78 104.44C306.25 105.26 307.89 105.67 309.67 105.67C311.45 105.67 313.1 105.26 314.59 104.44C316.08 103.62 317.26 102.43 318.14 100.88C319.02 99.32 319.46 97.51 319.46 95.43C319.46 93.35 319.02 91.55 318.14 90.01V90.02Z" fill="white"/>
<path d="M334.82 108.62C333.07 107.9 331.68 106.9 330.66 105.61C329.64 104.32 329.08 102.84 328.98 101.17H333.93C334.07 102.54 334.75 103.66 335.96 104.53C337.17 105.4 338.76 105.84 340.72 105.84C342.54 105.84 343.98 105.46 345.04 104.68C346.09 103.91 346.62 102.94 346.62 101.77C346.62 100.6 346.06 99.67 344.94 99.08C343.82 98.5 342.08 97.92 339.73 97.35C337.59 96.81 335.84 96.27 334.49 95.72C333.14 95.17 331.98 94.35 331.02 93.26C330.05 92.17 329.57 90.74 329.57 88.97C329.57 87.56 330.01 86.28 330.89 85.11C331.77 83.94 333.01 83.01 334.63 82.32C336.24 81.63 338.09 81.29 340.16 81.29C343.35 81.29 345.93 82.06 347.9 83.6C349.86 85.14 350.92 87.25 351.06 89.93H346.27C346.16 88.49 345.56 87.34 344.45 86.47C343.35 85.6 341.86 85.17 340 85.17C338.28 85.17 336.91 85.52 335.89 86.22C334.87 86.92 334.36 87.84 334.36 88.98C334.36 89.88 334.67 90.63 335.28 91.21C335.89 91.8 336.67 92.26 337.6 92.62C338.53 92.98 339.82 93.37 341.47 93.8C343.54 94.34 345.22 94.86 346.52 95.38C347.82 95.9 348.93 96.68 349.86 97.71C350.79 98.75 351.27 100.1 351.31 101.78C351.31 103.29 350.87 104.64 349.99 105.85C349.11 107.05 347.88 108 346.28 108.69C344.68 109.38 342.85 109.72 340.78 109.72C338.57 109.72 336.59 109.36 334.83 108.64L334.82 108.62Z" fill="white"/>
</g>
<defs>
<clipPath id="clip0_69_1321">
<rect width="351.3" height="127.86" fill="white"/>
</clipPath>
</defs>
</svg>
